<?xml version="1.0" encoding="UTF-8"?>
<!DOCTYPE svg PUBLIC "-//W3C//DTD SVG 1.1//EN" "http://www.w3.org/Graphics/SVG/1.1/DTD/svg11.dtd">
<svg version="1.1" xmlns="http://www.w3.org/2000/svg" xmlns:xlink="http://www.w3.org/1999/xlink" x="0" y="0" width="1000" height="257.3" viewBox="0, 0, 1000, 257.3">
  <g id="Layer_1">
    <g>
      <path d="M359.043,40.394 C354.811,24.559 342.467,12.176 326.646,7.893 C298.062,0.217 183.424,0.217 183.424,0.217 C183.424,0.217 68.8,0.217 40.215,7.893 C24.389,12.172 12.04,24.556 7.805,40.394 C0.129,69.044 0.129,128.867 0.129,128.867 C0.129,128.867 0.129,188.677 7.805,217.34 C12.042,233.17 24.384,245.547 40.202,249.828 C68.787,257.517 183.424,257.517 183.424,257.517 C183.424,257.517 298.062,257.517 326.633,249.841 C342.459,245.562 354.809,233.178 359.043,217.34 C366.719,188.677 366.719,128.867 366.719,128.867 C366.719,128.867 366.68,69.07 359.043,40.394 z" fill="#FF0000"/>
      <path d="M146.734,184.02 L241.973,128.893 L146.734,73.728 z M527.974,100.022 C521.417,133.395 516.447,174.157 513.819,190.954 L511.971,190.954 C509.89,173.611 504.88,133.135 498.102,100.27 L481.318,18.562 L430.199,18.562 L430.199,239.094 L461.919,239.094 L461.919,57.308 L465.055,74.274 L497.282,239.055 L529.002,239.055 L560.709,74.287 L564.118,57.23 L564.118,239.081 L595.838,239.081 L595.838,18.562 L544.199,18.562 L527.987,100.022 z M681.566,205.956 C678.665,212.006 672.394,216.221 666.083,216.221 C658.745,216.221 655.857,210.431 655.857,196.25 L655.857,77.969 L619.674,77.969 L619.674,198.331 C619.674,228.048 629.354,241.696 650.874,241.696 C665.537,241.696 677.338,235.126 685.482,219.357 L686.263,219.357 L689.412,239.055 L717.71,239.055 L717.71,77.943 L681.54,77.943 L681.54,205.969 L681.566,205.969 z M787.721,141.566 C775.92,132.887 768.595,127.111 768.595,114.49 C768.595,105.565 772.784,100.569 782.738,100.569 C792.977,100.569 796.386,107.686 796.62,131.86 L827.039,130.559 C829.381,91.396 816.566,75.094 783.258,75.094 C752.332,75.094 737.122,89.015 737.122,117.665 C737.122,143.686 749.703,155.526 770.13,171.009 C787.695,184.683 797.921,192.307 797.921,203.328 C797.921,211.732 792.665,217.509 783.492,217.509 C772.758,217.509 766.448,207.257 768.049,189.406 L737.382,189.926 C732.685,223.299 746.047,242.75 781.684,242.75 C812.883,242.75 829.121,228.295 829.121,199.398 C829.147,173.104 816.019,162.604 787.721,141.566 z M849.066,77.969 L883.675,77.969 L883.675,239.094 L849.066,239.094 z M866.631,14.373 C853.256,14.373 846.985,19.356 846.985,36.699 C846.985,54.576 853.256,59.026 866.631,59.026 C880.266,59.026 886.277,54.55 886.277,36.699 C886.277,20.149 880.266,14.373 866.631,14.373 z M1000.03,181.001 L968.323,179.427 C968.323,207.803 965.187,217.002 954.44,217.002 C943.693,217.002 941.859,206.749 941.859,173.377 L941.859,142.073 C941.859,109.754 943.941,99.502 954.714,99.502 C964.667,99.502 967.295,109.208 967.295,139.198 L998.742,137.116 C1000.824,112.135 997.688,95.052 987.995,85.333 C980.904,78.229 970.17,74.834 955.221,74.834 C920.092,74.834 905.676,93.751 905.676,146.848 L905.676,169.461 C905.676,224.132 917.984,241.735 953.894,241.735 C969.116,241.735 979.577,238.6 986.668,231.756 C996.894,222.219 1000.824,205.943 1000.03,180.988 z" fill="#FFFFFF"/>
    </g>
  </g>
</svg>
